<?xml version="1.0" standalone="no"?>
<svg xmlns:xlink="http://www.w3.org/1999/xlink" id="wave" style="transform:rotate(0deg); transition: 0.3s" viewBox="0 0 1440 320" version="1.1" xmlns="http://www.w3.org/2000/svg"><defs><linearGradient id="sw-gradient-0" x1="0" x2="0" y1="1" y2="0"><stop stop-color="rgba(255, 255, 255, 1)" offset="0%"/><stop stop-color="rgba(255, 0, 0, 1)" offset="100%"/></linearGradient></defs><path style="transform:translate(0, 0px); opacity:1" fill="url(#sw-gradient-0)" d="M0,256L30,261.3C60,267,120,277,180,245.3C240,213,300,139,360,133.3C420,128,480,192,540,197.3C600,203,660,149,720,133.3C780,117,840,139,900,149.3C960,160,1020,160,1080,133.3C1140,107,1200,53,1260,37.3C1320,21,1380,43,1440,48C1500,53,1560,43,1620,48C1680,53,1740,75,1800,117.3C1860,160,1920,224,1980,213.3C2040,203,2100,117,2160,74.7C2220,32,2280,32,2340,64C2400,96,2460,160,2520,170.7C2580,181,2640,139,2700,128C2760,117,2820,139,2880,128C2940,117,3000,75,3060,58.7C3120,43,3180,53,3240,74.7C3300,96,3360,128,3420,160C3480,192,3540,224,3600,208C3660,192,3720,128,3780,101.3C3840,75,3900,85,3960,85.3C4020,85,4080,75,4140,85.3C4200,96,4260,128,4290,144L4320,160L4320,320L4290,320C4260,320,4200,320,4140,320C4080,320,4020,320,3960,320C3900,320,3840,320,3780,320C3720,320,3660,320,3600,320C3540,320,3480,320,3420,320C3360,320,3300,320,3240,320C3180,320,3120,320,3060,320C3000,320,2940,320,2880,320C2820,320,2760,320,2700,320C2640,320,2580,320,2520,320C2460,320,2400,320,2340,320C2280,320,2220,320,2160,320C2100,320,2040,320,1980,320C1920,320,1860,320,1800,320C1740,320,1680,320,1620,320C1560,320,1500,320,1440,320C1380,320,1320,320,1260,320C1200,320,1140,320,1080,320C1020,320,960,320,900,320C840,320,780,320,720,320C660,320,600,320,540,320C480,320,420,320,360,320C300,320,240,320,180,320C120,320,60,320,30,320L0,320Z"/><defs><linearGradient id="sw-gradient-1" x1="0" x2="0" y1="1" y2="0"><stop stop-color="rgba(255, 255, 255, 1)" offset="0%"/><stop stop-color="rgba(255, 0, 0, 1)" offset="100%"/></linearGradient></defs><path style="transform:translate(0, 50px); opacity:0.9" fill="url(#sw-gradient-1)" d="M0,96L30,117.3C60,139,120,181,180,165.3C240,149,300,75,360,37.3C420,0,480,0,540,16C600,32,660,64,720,74.7C780,85,840,75,900,58.7C960,43,1020,21,1080,48C1140,75,1200,149,1260,186.7C1320,224,1380,224,1440,218.7C1500,213,1560,203,1620,176C1680,149,1740,107,1800,96C1860,85,1920,107,1980,96C2040,85,2100,43,2160,53.3C2220,64,2280,128,2340,176C2400,224,2460,256,2520,266.7C2580,277,2640,267,2700,261.3C2760,256,2820,256,2880,240C2940,224,3000,192,3060,154.7C3120,117,3180,75,3240,58.7C3300,43,3360,53,3420,53.3C3480,53,3540,43,3600,32C3660,21,3720,11,3780,16C3840,21,3900,43,3960,64C4020,85,4080,107,4140,122.7C4200,139,4260,149,4290,154.7L4320,160L4320,320L4290,320C4260,320,4200,320,4140,320C4080,320,4020,320,3960,320C3900,320,3840,320,3780,320C3720,320,3660,320,3600,320C3540,320,3480,320,3420,320C3360,320,3300,320,3240,320C3180,320,3120,320,3060,320C3000,320,2940,320,2880,320C2820,320,2760,320,2700,320C2640,320,2580,320,2520,320C2460,320,2400,320,2340,320C2280,320,2220,320,2160,320C2100,320,2040,320,1980,320C1920,320,1860,320,1800,320C1740,320,1680,320,1620,320C1560,320,1500,320,1440,320C1380,320,1320,320,1260,320C1200,320,1140,320,1080,320C1020,320,960,320,900,320C840,320,780,320,720,320C660,320,600,320,540,320C480,320,420,320,360,320C300,320,240,320,180,320C120,320,60,320,30,320L0,320Z"/><defs><linearGradient id="sw-gradient-2" x1="0" x2="0" y1="1" y2="0"><stop stop-color="rgba(255, 255, 255, 1)" offset="0%"/><stop stop-color="rgba(255, 0, 0, 1)" offset="100%"/></linearGradient></defs><path style="transform:translate(0, 100px); opacity:0.8" fill="url(#sw-gradient-2)" d="M0,128L30,117.3C60,107,120,85,180,69.3C240,53,300,43,360,64C420,85,480,139,540,149.3C600,160,660,128,720,106.7C780,85,840,75,900,101.3C960,128,1020,192,1080,208C1140,224,1200,192,1260,181.3C1320,171,1380,181,1440,197.3C1500,213,1560,235,1620,213.3C1680,192,1740,128,1800,106.7C1860,85,1920,107,1980,106.7C2040,107,2100,85,2160,74.7C2220,64,2280,64,2340,96C2400,128,2460,192,2520,229.3C2580,267,2640,277,2700,282.7C2760,288,2820,288,2880,277.3C2940,267,3000,245,3060,245.3C3120,245,3180,267,3240,272C3300,277,3360,267,3420,245.3C3480,224,3540,192,3600,160C3660,128,3720,96,3780,101.3C3840,107,3900,149,3960,154.7C4020,160,4080,128,4140,128C4200,128,4260,160,4290,176L4320,192L4320,320L4290,320C4260,320,4200,320,4140,320C4080,320,4020,320,3960,320C3900,320,3840,320,3780,320C3720,320,3660,320,3600,320C3540,320,3480,320,3420,320C3360,320,3300,320,3240,320C3180,320,3120,320,3060,320C3000,320,2940,320,2880,320C2820,320,2760,320,2700,320C2640,320,2580,320,2520,320C2460,320,2400,320,2340,320C2280,320,2220,320,2160,320C2100,320,2040,320,1980,320C1920,320,1860,320,1800,320C1740,320,1680,320,1620,320C1560,320,1500,320,1440,320C1380,320,1320,320,1260,320C1200,320,1140,320,1080,320C1020,320,960,320,900,320C840,320,780,320,720,320C660,320,600,320,540,320C480,320,420,320,360,320C300,320,240,320,180,320C120,320,60,320,30,320L0,320Z"/><defs><linearGradient id="sw-gradient-3" x1="0" x2="0" y1="1" y2="0"><stop stop-color="rgba(255, 255, 255, 1)" offset="0%"/><stop stop-color="rgba(255, 11, 11, 1)" offset="100%"/></linearGradient></defs><path style="transform:translate(0, 150px); opacity:0.7" fill="url(#sw-gradient-3)" d="M0,0L30,37.3C60,75,120,149,180,165.3C240,181,300,139,360,112C420,85,480,75,540,64C600,53,660,43,720,80C780,117,840,203,900,224C960,245,1020,203,1080,181.3C1140,160,1200,160,1260,165.3C1320,171,1380,181,1440,170.7C1500,160,1560,128,1620,112C1680,96,1740,96,1800,128C1860,160,1920,224,1980,224C2040,224,2100,160,2160,138.7C2220,117,2280,139,2340,170.7C2400,203,2460,245,2520,218.7C2580,192,2640,96,2700,58.7C2760,21,2820,43,2880,80C2940,117,3000,171,3060,192C3120,213,3180,203,3240,197.3C3300,192,3360,192,3420,202.7C3480,213,3540,235,3600,240C3660,245,3720,235,3780,229.3C3840,224,3900,224,3960,197.3C4020,171,4080,117,4140,101.3C4200,85,4260,107,4290,117.3L4320,128L4320,320L4290,320C4260,320,4200,320,4140,320C4080,320,4020,320,3960,320C3900,320,3840,320,3780,320C3720,320,3660,320,3600,320C3540,320,3480,320,3420,320C3360,320,3300,320,3240,320C3180,320,3120,320,3060,320C3000,320,2940,320,2880,320C2820,320,2760,320,2700,320C2640,320,2580,320,2520,320C2460,320,2400,320,2340,320C2280,320,2220,320,2160,320C2100,320,2040,320,1980,320C1920,320,1860,320,1800,320C1740,320,1680,320,1620,320C1560,320,1500,320,1440,320C1380,320,1320,320,1260,320C1200,320,1140,320,1080,320C1020,320,960,320,900,320C840,320,780,320,720,320C660,320,600,320,540,320C480,320,420,320,360,320C300,320,240,320,180,320C120,320,60,320,30,320L0,320Z"/></svg>